<?xml version="1.0" encoding="UTF-8"?>
<!DOCTYPE svg PUBLIC "-//W3C//DTD SVG 1.1//EN" "http://www.w3.org/Graphics/SVG/1.1/DTD/svg11.dtd">
<svg xmlns="http://www.w3.org/2000/svg" xmlns:xlink="http://www.w3.org/1999/xlink" version="1.1" width="517px" height="314px" viewBox="-0.5 -0.5 517 314"><defs><clipPath id="mx-clip-5-182-192-44-0"><rect x="5" y="182" width="192" height="44"/></clipPath><clipPath id="mx-clip-320-32-192-44-0"><rect x="320" y="32" width="192" height="44"/></clipPath><clipPath id="mx-clip-320-84-192-232-0"><rect x="320" y="84" width="192" height="232"/></clipPath></defs><g><path d="M 1 177 L 1 151 L 201 151 L 201 177" fill="none" stroke="#000000" stroke-width="2" stroke-miterlimit="10" pointer-events="all"/><path d="M 1 177 L 1 229 L 201 229 L 201 177" fill="none" stroke="#000000" stroke-width="2" stroke-miterlimit="10" pointer-events="none"/><path d="M 1 177 L 201 177" fill="none" stroke="#000000" stroke-width="2" stroke-miterlimit="10" pointer-events="none"/><g fill="#000000" font-family="Helvetica" font-weight="bold" text-anchor="middle" font-size="14px"><text x="100.5" y="170.5">ComplexMath</text></g><g fill="#000000" font-family="Helvetica" clip-path="url(#mx-clip-5-182-192-44-0)" font-size="12px"><text x="6.5" y="194.5">+ toPolar()</text><text x="6.5" y="208.5">+ toCartesian()</text></g><path d="M 1 225 L 201 225" fill="none" stroke="#000000" stroke-miterlimit="10" pointer-events="none"/><path d="M 316 27 L 316 1 L 516 1 L 516 27" fill="none" stroke="#000000" stroke-width="2" stroke-miterlimit="10" pointer-events="none"/><path d="M 316 27 L 316 311 L 516 311 L 516 27" fill="none" stroke="#000000" stroke-width="2" stroke-miterlimit="10" pointer-events="none"/><path d="M 316 27 L 516 27" fill="none" stroke="#000000" stroke-width="2" stroke-miterlimit="10" pointer-events="none"/><g fill="#000000" font-family="Helvetica" font-weight="bold" text-anchor="middle" font-size="14px"><text x="415.5" y="20.5">Complex</text></g><g fill="#000000" font-family="Helvetica" clip-path="url(#mx-clip-320-32-192-44-0)" font-size="12px"><text x="321.5" y="44.5">+ real</text><text x="321.5" y="58.5">+ imag</text></g><path d="M 316 75 L 516 75" fill="none" stroke="#000000" stroke-miterlimit="10" pointer-events="none"/><g fill="#000000" font-family="Helvetica" clip-path="url(#mx-clip-320-84-192-232-0)" font-size="12px"><text x="321.5" y="96.5">+ polar()</text><text x="321.5" y="110.5">+ add()</text><text x="321.5" y="124.5">+ sub()</text><text x="321.5" y="138.5">+ mult()</text><text x="321.5" y="152.5">+ div()</text><text x="321.5" y="166.5">+ getReal</text><text x="321.5" y="180.5">+ setReal</text><text x="321.5" y="194.5">+ getImag</text><text x="321.5" y="208.5">+ setImag</text><text x="321.5" y="222.5">+ getAbs</text><text x="321.5" y="236.5">+ getRad</text><text x="321.5" y="250.5">+ equals()</text><text x="321.5" y="264.5">+ hashCode()</text><text x="321.5" y="278.5">+ toString()</text><text x="321.5" y="292.5">+ toStringPlolar()</text></g><path d="M 201 199 L 253.5 199 L 253.5 49 L 311.53 49" fill="none" stroke="#000000" stroke-width="2" stroke-miterlimit="10" pointer-events="none"/><path d="M 300.76 55.5 L 313.76 49 L 300.76 42.5" fill="none" stroke="#000000" stroke-width="2" stroke-miterlimit="10" pointer-events="none"/></g></svg>