<svg version="1.1" viewBox="0.0 0.0 600.0 371.0" fill="none" stroke="none" stroke-linecap="square" stroke-miterlimit="10" width="600" height="371" xmlns:xlink="http://www.w3.org/1999/xlink" xmlns="http://www.w3.org/2000/svg"><path fill="#ffffff" d="M0 0L600.0 0L600.0 371.0L0 371.0L0 0Z" fill-rule="nonzero"/><path stroke="#333333" stroke-width="1.0" stroke-linecap="butt" d="M78.5 331.5L581.5 331.5" fill-rule="nonzero"/><path stroke="#cccccc" stroke-width="1.0" stroke-linecap="butt" d="M78.5 249.5L581.5 249.5" fill-rule="nonzero"/><path stroke="#cccccc" stroke-width="1.0" stroke-linecap="butt" d="M78.5 168.5L581.5 168.5" fill-rule="nonzero"/><path stroke="#cccccc" stroke-width="1.0" stroke-linecap="butt" d="M78.5 86.5L581.5 86.5" fill-rule="nonzero"/><clipPath id="id_0"><path d="M78.55 86.916664L581.45 86.916664L581.45 331.45L78.55 331.45L78.55 86.916664Z" clip-rule="nonzero"/></clipPath><path stroke="#000000" stroke-width="0.0" stroke-linecap="butt" stroke-opacity="0.0" clip-path="url(#id_0)" d="M195.0 331.0L120.0 331.0L120.0 130.0C120.0 128.89543 120.89543 128.0 122.0 128.0L193.0 128.0C194.10457 128.0 195.0 128.89543 195.0 130.0Z" fill-rule="nonzero"/><path fill="#4285f4" clip-path="url(#id_0)" d="M195.0 331.0L120.0 331.0L120.0 130.0C120.0 128.89543 120.89543 128.0 122.0 128.0L193.0 128.0C194.10457 128.0 195.0 128.89543 195.0 130.0Z" fill-rule="nonzero"/><path stroke="#000000" stroke-width="0.0" stroke-linecap="butt" stroke-opacity="0.0" clip-path="url(#id_0)" d="M310.0 331.0L235.0 331.0L235.0 129.0C235.0 127.89543 235.89543 127.0 237.0 127.0L308.0 127.0C309.10458 127.0 310.0 127.89543 310.0 129.0Z" fill-rule="nonzero"/><path fill="#4285f4" clip-path="url(#id_0)" d="M310.0 331.0L235.0 331.0L235.0 129.0C235.0 127.89543 235.89543 127.0 237.0 127.0L308.0 127.0C309.10458 127.0 310.0 127.89543 310.0 129.0Z" fill-rule="nonzero"/><path stroke="#000000" stroke-width="0.0" stroke-linecap="butt" stroke-opacity="0.0" clip-path="url(#id_0)" d="M426.0 331.0L351.0 331.0L351.0 129.0C351.0 127.89543 351.89542 127.0 353.0 127.0L424.0 127.0C425.10458 127.0 426.0 127.89543 426.0 129.0Z" fill-rule="nonzero"/><path fill="#4285f4" clip-path="url(#id_0)" d="M426.0 331.0L351.0 331.0L351.0 129.0C351.0 127.89543 351.89542 127.0 353.0 127.0L424.0 127.0C425.10458 127.0 426.0 127.89543 426.0 129.0Z" fill-rule="nonzero"/><path stroke="#000000" stroke-width="0.0" stroke-linecap="butt" stroke-opacity="0.0" clip-path="url(#id_0)" d="M541.0 331.0L466.0 331.0L466.0 128.0C466.0 126.89543 466.89542 126.0 468.0 126.0L539.0 126.0C540.10455 126.0 541.0 126.89543 541.0 128.0Z" fill-rule="nonzero"/><path fill="#4285f4" clip-path="url(#id_0)" d="M541.0 331.0L466.0 331.0L466.0 128.0C466.0 126.89543 466.89542 126.0 468.0 126.0L539.0 126.0C540.10455 126.0 541.0 126.89543 541.0 128.0Z" fill-rule="nonzero"/><path fill="#424242" d="M28.315638 232.23021L28.315638 235.80833L30.550013 236.60521L30.550013 237.76146L22.018763 234.51146L22.018763 233.52708L30.550013 230.26146L30.550013 231.41771L28.315638 232.23021ZM27.393763 235.46458L27.393763 232.55833L23.409388 234.01146L27.393763 235.46458ZM29.081263 227.02708L24.206263 225.44896L24.206263 224.33958L30.550013 226.62083L30.550013 227.44896L24.206263 229.74583L24.206263 228.63646L29.081263 227.02708ZM30.675013 220.48021Q30.675013 221.77708 29.831263 222.58958Q28.971888 223.38646 27.550013 223.38646L27.362513 223.38646Q26.409388 223.38646 25.675013 223.02708Q24.925013 222.66771 24.518763 222.02708Q24.096888 221.37083 24.096888 220.62083Q24.096888 219.38646 24.909388 218.69896Q25.721888 218.01146 27.237513 218.01146L27.690638 218.01146L27.690638 222.30833Q28.628138 222.27708 29.206263 221.76146Q29.784388 221.23021 29.784388 220.41771Q29.784388 219.85521 29.550013 219.46458Q29.315638 219.05833 28.925013 218.74583L29.440638 218.08958Q30.675013 218.88646 30.675013 220.48021ZM24.987513 220.62083Q24.987513 221.27708 25.471888 221.73021Q25.940638 222.16771 26.800013 222.26146L26.800013 219.08958L26.721888 219.08958Q25.893763 219.13646 25.440638 219.54271Q24.987513 219.93333 24.987513 220.62083ZM25.175013 214.04271Q25.143763 214.29271 25.143763 214.57396Q25.143763 215.65208 26.050013 216.02708L30.550013 216.02708L30.550013 217.10521L24.206263 217.10521L24.206263 216.05833L24.940638 216.04271Q24.096888 215.51146 24.096888 214.52708Q24.096888 214.21458 24.175013 214.04271L25.175013 214.04271ZM30.550013 209.19896Q30.362513 209.29271 29.878138 209.35521Q30.675013 210.10521 30.675013 211.15208Q30.675013 212.08958 30.143763 212.69896Q29.612513 213.29271 28.784388 213.29271Q27.800013 213.29271 27.253138 212.54271Q26.706263 211.79271 26.706263 210.41771L26.706263 209.37083L26.206263 209.37083Q25.643763 209.37083 25.315638 209.71458Q24.971888 210.04271 24.971888 210.71458Q24.971888 211.29271 25.268763 211.68333Q25.550013 212.07396 25.971888 212.07396L25.971888 213.16771Q25.487513 213.16771 25.050013 212.83958Q24.612513 212.49583 24.362513 211.91771Q24.096888 211.33958 24.096888 210.65208Q24.096888 209.54271 24.643763 208.93333Q25.190638 208.30833 26.143763 208.27708L29.065638 208.27708Q29.940638 208.27708 30.456263 208.05833L30.550013 208.05833L30.550013 209.19896ZM29.721888 210.99583Q29.721888 210.48021 29.456263 210.02708Q29.190638 209.57396 28.768763 209.37083L27.471888 209.37083L27.471888 210.21458Q27.471888 212.21458 28.643763 212.21458Q29.143763 212.21458 29.440638 211.87083Q29.721888 211.52708 29.721888 210.99583ZM27.331263 206.37083Q25.846888 206.37083 24.971888 205.68333Q24.096888 204.99583 24.096888 203.87083Q24.096888 202.71458 24.909388 202.05833L24.206263 202.01146L24.206263 201.01146L30.393763 201.01146Q31.628138 201.01146 32.33126 201.74583Q33.05001 202.48021 33.05001 203.69896Q33.05001 204.38646 32.753136 205.04271Q32.45626 205.69896 31.956263 206.04271L31.300013 205.48021Q32.159386 204.79271 32.159386 203.77708Q32.159386 202.99583 31.706263 202.55833Q31.268763 202.10521 30.456263 202.10521L29.909388 202.10521Q30.675013 202.76146 30.675013 203.88646Q30.675013 204.99583 29.784388 205.68333Q28.878138 206.37083 27.331263 206.37083ZM27.456263 205.27708Q28.518763 205.27708 29.143763 204.83958Q29.753138 204.40208 29.753138 203.60521Q29.753138 202.58958 28.815638 202.10521L25.925013 202.10521Q25.018763 202.60521 25.018763 203.60521Q25.018763 204.38646 25.628138 204.83958Q26.237513 205.27708 27.456263 205.27708ZM30.675013 196.48021Q30.675013 197.77708 29.831263 198.58958Q28.971888 199.38646 27.550013 199.38646L27.362513 199.38646Q26.409388 199.38646 25.675013 199.02708Q24.925013 198.66771 24.518763 198.02708Q24.096888 197.37083 24.096888 196.62083Q24.096888 195.38646 24.909388 194.69896Q25.721888 194.01146 27.237513 194.01146L27.690638 194.01146L27.690638 198.30833Q28.628138 198.27708 29.206263 197.76146Q29.784388 197.23021 29.784388 196.41771Q29.784388 195.85521 29.550013 195.46458Q29.315638 195.05833 28.925013 194.74583L29.440638 194.08958Q30.675013 194.88646 30.675013 196.48021ZM24.987513 196.62083Q24.987513 197.27708 25.471888 197.73021Q25.940638 198.16771 26.800013 198.26146L26.800013 195.08958L26.721888 195.08958Q25.893763 195.13646 25.440638 195.54271Q24.987513 195.93333 24.987513 196.62083Z" fill-rule="nonzero"/><path fill="#757575" d="M71.6125 332.3094Q71.6125 334.21564 70.95625 335.15314Q70.31563 336.075 68.925 336.075Q67.56563 336.075 66.90938 335.16876Q66.25313 334.2625 66.22188 332.45L66.22188 331.0125Q66.22188 329.1219 66.8625 328.21564Q67.51875 327.29376 68.90938 327.29376Q70.28438 327.29376 70.94063 328.1844Q71.59688 329.0594 71.6125 330.90314L71.6125 332.3094ZM70.51875 330.825Q70.51875 329.45 70.12813 328.825Q69.75313 328.1844 68.90938 328.1844Q68.08125 328.1844 67.69063 328.825Q67.31563 329.45 67.31563 330.7469L67.31563 332.48126Q67.31563 333.85626 67.70625 334.52814Q68.1125 335.1844 68.925 335.1844Q69.72188 335.1844 70.1125 334.5594Q70.50313 333.9344 70.51875 332.60626L70.51875 330.825Z" fill-rule="nonzero"/><path fill="#757575" d="M66.75313 250.15764L67.19063 245.90764L71.56563 245.90764L71.56563 246.90764L68.1125 246.90764L67.84688 249.23576Q68.4875 248.86076 69.28438 248.86076Q70.44063 248.86076 71.12813 249.64201Q71.81563 250.40764 71.81563 251.72014Q71.81563 253.03264 71.09688 253.79826Q70.39375 254.56389 69.1125 254.56389Q67.9875 254.56389 67.26875 253.93889Q66.55 253.29826 66.45625 252.18889L67.47188 252.18889Q67.58125 252.92326 68.00313 253.29826Q68.425 253.67326 69.1125 253.67326Q69.8625 253.67326 70.3 253.15764Q70.7375 252.64201 70.7375 251.73576Q70.7375 250.87639 70.26875 250.36076Q69.8 249.84514 69.01875 249.84514Q68.31563 249.84514 67.90938 250.14201L67.62813 250.37639L66.75313 250.15764Z" fill-rule="nonzero"/><path fill="#757575" d="M62.815624 172.92778L61.7375 172.92778L61.7375 165.70903L59.55 166.5059L59.55 165.52153L62.659374 164.34966L62.815624 164.34966L62.815624 172.92778ZM71.6125 169.28716Q71.6125 171.1934 70.95625 172.1309Q70.31563 173.05278 68.925 173.05278Q67.56563 173.05278 66.90938 172.14653Q66.25313 171.24028 66.22188 169.42778L66.22188 167.99028Q66.22188 166.09966 66.8625 165.1934Q67.51875 164.27153 68.90938 164.27153Q70.28438 164.27153 70.94063 165.16216Q71.59688 166.03716 71.6125 167.8809L71.6125 169.28716ZM70.51875 167.80278Q70.51875 166.42778 70.12813 165.80278Q69.75313 165.16216 68.90938 165.16216Q68.08125 165.16216 67.69063 165.80278Q67.31563 166.42778 67.31563 167.72466L67.31563 169.45903Q67.31563 170.83403 67.70625 171.5059Q68.1125 172.16216 68.925 172.16216Q69.72188 172.16216 70.1125 171.53716Q70.50313 170.91216 70.51875 169.58403L70.51875 167.80278Z" fill-rule="nonzero"/><path fill="#757575" d="M62.815624 91.416664L61.7375 91.416664L61.7375 84.197914L59.55 84.99479L59.55 84.010414L62.659374 82.83854L62.815624 82.83854L62.815624 91.416664ZM66.75313 87.135414L67.19063 82.885414L71.56563 82.885414L71.56563 83.885414L68.1125 83.885414L67.84688 86.21354Q68.4875 85.83854 69.28438 85.83854Q70.44063 85.83854 71.12813 86.61979Q71.81563 87.385414 71.81563 88.697914Q71.81563 90.010414 71.09688 90.77604Q70.39375 91.541664 69.1125 91.541664Q67.9875 91.541664 67.26875 90.916664Q66.55 90.27604 66.45625 89.166664L67.47188 89.166664Q67.58125 89.90104 68.00313 90.27604Q68.425 90.65104 69.1125 90.65104Q69.8625 90.65104 70.3 90.135414Q70.7375 89.61979 70.7375 88.71354Q70.7375 87.854164 70.26875 87.33854Q69.8 86.822914 69.01875 86.822914Q68.31563 86.822914 67.90938 87.11979L67.62813 87.354164L66.75313 87.135414Z" fill-rule="nonzero"/><path fill="#757575" d="M142.85184 349.45L141.77371 349.45L141.77371 342.23126L139.58621 343.02814L139.58621 342.04376L142.69559 340.8719L142.85184 340.8719L142.85184 349.45ZM146.42996 348.8875Q146.42996 348.60626 146.58621 348.41876Q146.75809 348.23126 147.08621 348.23126Q147.42996 348.23126 147.60184 348.41876Q147.77371 348.60626 147.77371 348.8875Q147.77371 349.15314 147.60184 349.34064Q147.42996 349.5125 147.08621 349.5125Q146.75809 349.5125 146.58621 349.34064Q146.42996 349.15314 146.42996 348.8875ZM158.47684 341.84064L155.72684 341.84064L155.72684 349.45L154.61746 349.45L154.61746 341.84064L151.86746 341.84064L151.86746 340.91876L158.47684 340.91876L158.47684 341.84064ZM162.03934 349.575Q160.74246 349.575 159.92996 348.73126Q159.13309 347.8719 159.13309 346.45L159.13309 346.2625Q159.13309 345.3094 159.49246 344.575Q159.85184 343.825 160.49246 343.41876Q161.14871 342.9969 161.89871 342.9969Q163.13309 342.9969 163.82059 343.8094Q164.50809 344.6219 164.50809 346.1375L164.50809 346.59064L160.21121 346.59064Q160.24246 347.52814 160.75809 348.10626Q161.28934 348.6844 162.10184 348.6844Q162.66434 348.6844 163.05496 348.45Q163.46121 348.21564 163.77371 347.825L164.42996 348.34064Q163.63309 349.575 162.03934 349.575ZM161.89871 343.8875Q161.24246 343.8875 160.78934 344.3719Q160.35184 344.84064 160.25809 345.7L163.42996 345.7L163.42996 345.6219Q163.38309 344.79376 162.97684 344.34064Q162.58621 343.8875 161.89871 343.8875ZM169.10184 347.7625Q169.10184 347.325 168.75809 347.09064Q168.42996 346.84064 167.60184 346.66876Q166.78934 346.4969 166.30496 346.2469Q165.82059 345.9969 165.58621 345.66876Q165.36746 345.325 165.36746 344.85626Q165.36746 344.075 166.02371 343.54376Q166.67996 342.9969 167.71121 342.9969Q168.78934 342.9969 169.44559 343.5594Q170.11746 344.10626 170.11746 344.96564L169.03934 344.96564Q169.03934 344.52814 168.64871 344.21564Q168.27371 343.8875 167.71121 343.8875Q167.11746 343.8875 166.77371 344.15314Q166.44559 344.40314 166.44559 344.8094Q166.44559 345.2 166.75809 345.40314Q167.07059 345.60626 167.88309 345.79376Q168.69559 345.96564 169.19559 346.21564Q169.69559 346.46564 169.92996 346.825Q170.17996 347.1844 170.17996 347.6844Q170.17996 348.54376 169.49246 349.0594Q168.82059 349.575 167.74246 349.575Q166.97684 349.575 166.38309 349.3094Q165.80496 349.02814 165.47684 348.54376Q165.14871 348.0594 165.14871 347.4969L166.22684 347.4969Q166.25809 348.04376 166.66434 348.3719Q167.07059 348.6844 167.74246 348.6844Q168.35184 348.6844 168.72684 348.4344Q169.10184 348.1844 169.10184 347.7625ZM172.88309 341.575L172.88309 343.10626L174.05496 343.10626L174.05496 343.95L172.88309 343.95L172.88309 347.8719Q172.88309 348.2625 173.03934 348.45Q173.19559 348.6375 173.57059 348.6375Q173.75809 348.6375 174.08621 348.575L174.08621 349.45Q173.66434 349.575 173.25809 349.575Q172.53934 349.575 172.16434 349.1375Q171.78934 348.6844 171.78934 347.8719L171.78934 343.95L170.63309 343.95L170.63309 343.10626L171.78934 343.10626L171.78934 341.575L172.88309 341.575Z" fill-rule="nonzero"/><path fill="#757575" d="M260.49228 349.45L254.89853 349.45L254.89853 348.66876L257.85165 345.3875Q258.5079 344.6375 258.7579 344.1844Q259.0079 343.71564 259.0079 343.21564Q259.0079 342.54376 258.60165 342.1219Q258.21103 341.6844 257.52353 341.6844Q256.72665 341.6844 256.27353 342.15314Q255.8204 342.60626 255.8204 343.4344L254.74228 343.4344Q254.74228 342.2469 255.49228 341.52814Q256.2579 340.79376 257.52353 340.79376Q258.72665 340.79376 259.41415 341.41876Q260.10165 342.04376 260.10165 343.09064Q260.10165 344.34064 258.49228 346.09064L256.21103 348.5594L260.49228 348.5594L260.49228 349.45ZM262.03915 348.8875Q262.03915 348.60626 262.1954 348.41876Q262.36728 348.23126 262.6954 348.23126Q263.03915 348.23126 263.21103 348.41876Q263.3829 348.60626 263.3829 348.8875Q263.3829 349.15314 263.21103 349.34064Q263.03915 349.5125 262.6954 349.5125Q262.36728 349.5125 262.1954 349.34064Q262.03915 349.15314 262.03915 348.8875ZM274.08603 341.84064L271.33603 341.84064L271.33603 349.45L270.22665 349.45L270.22665 341.84064L267.47665 341.84064L267.47665 340.91876L274.08603 340.91876L274.08603 341.84064ZM277.64853 349.575Q276.35165 349.575 275.53915 348.73126Q274.74228 347.8719 274.74228 346.45L274.74228 346.2625Q274.74228 345.3094 275.10165 344.575Q275.46103 343.825 276.10165 343.41876Q276.7579 342.9969 277.5079 342.9969Q278.74228 342.9969 279.42978 343.8094Q280.11728 344.6219 280.11728 346.1375L280.11728 346.59064L275.8204 346.59064Q275.85165 347.52814 276.36728 348.10626Q276.89853 348.6844 277.71103 348.6844Q278.27353 348.6844 278.66415 348.45Q279.0704 348.21564 279.3829 347.825L280.03915 348.34064Q279.24228 349.575 277.64853 349.575ZM277.5079 343.8875Q276.85165 343.8875 276.39853 344.3719Q275.96103 344.84064 275.86728 345.7L279.03915 345.7L279.03915 345.6219Q278.99228 344.79376 278.58603 344.34064Q278.1954 343.8875 277.5079 343.8875ZM284.71103 347.7625Q284.71103 347.325 284.36728 347.09064Q284.03915 346.84064 283.21103 346.66876Q282.39853 346.4969 281.91415 346.2469Q281.42978 345.9969 281.1954 345.66876Q280.97665 345.325 280.97665 344.85626Q280.97665 344.075 281.6329 343.54376Q282.28915 342.9969 283.3204 342.9969Q284.39853 342.9969 285.05478 343.5594Q285.72665 344.10626 285.72665 344.96564L284.64853 344.96564Q284.64853 344.52814 284.2579 344.21564Q283.8829 343.8875 283.3204 343.8875Q282.72665 343.8875 282.3829 344.15314Q282.05478 344.40314 282.05478 344.8094Q282.05478 345.2 282.36728 345.40314Q282.67978 345.60626 283.49228 345.79376Q284.30478 345.96564 284.80478 346.21564Q285.30478 346.46564 285.53915 346.825Q285.78915 347.1844 285.78915 347.6844Q285.78915 348.54376 285.10165 349.0594Q284.42978 349.575 283.35165 349.575Q282.58603 349.575 281.99228 349.3094Q281.41415 349.02814 281.08603 348.54376Q280.7579 348.0594 280.7579 347.4969L281.83603 347.4969Q281.86728 348.04376 282.27353 348.3719Q282.67978 348.6844 283.35165 348.6844Q283.96103 348.6844 284.33603 348.4344Q284.71103 348.1844 284.71103 347.7625ZM288.49228 341.575L288.49228 343.10626L289.66415 343.10626L289.66415 343.95L288.49228 343.95L288.49228 347.8719Q288.49228 348.2625 288.64853 348.45Q288.80478 348.6375 289.17978 348.6375Q289.36728 348.6375 289.6954 348.575L289.6954 349.45Q289.27353 349.575 288.86728 349.575Q288.14853 349.575 287.77353 349.1375Q287.39853 348.6844 287.39853 347.8719L287.39853 343.95L286.24228 343.95L286.24228 343.10626L287.39853 343.10626L287.39853 341.575L288.49228 341.575Z" fill-rule="nonzero"/><path fill="#757575" d="M372.08585 344.65314L372.89835 344.65314Q373.6796 344.6375 374.1171 344.2469Q374.5546 343.85626 374.5546 343.1844Q374.5546 341.6844 373.0546 341.6844Q372.35147 341.6844 371.9296 342.09064Q371.52335 342.4969 371.52335 343.15314L370.4296 343.15314Q370.4296 342.1375 371.16397 341.46564Q371.91397 340.79376 373.0546 340.79376Q374.25772 340.79376 374.94522 341.4344Q375.63272 342.075 375.63272 343.21564Q375.63272 343.77814 375.27335 344.29376Q374.91397 344.8094 374.28897 345.075Q374.9921 345.29376 375.3671 345.8094Q375.75772 346.325 375.75772 347.075Q375.75772 348.21564 375.00772 348.90314Q374.25772 349.575 373.0546 349.575Q371.8671 349.575 371.10147 348.91876Q370.35147 348.2625 370.35147 347.2L371.44522 347.2Q371.44522 347.8719 371.88272 348.27814Q372.32022 348.6844 373.07022 348.6844Q373.85147 348.6844 374.25772 348.27814Q374.6796 347.85626 374.6796 347.09064Q374.6796 346.35626 374.22647 345.96564Q373.77335 345.5594 372.89835 345.54376L372.08585 345.54376L372.08585 344.65314ZM377.64835 348.8875Q377.64835 348.60626 377.8046 348.41876Q377.97647 348.23126 378.3046 348.23126Q378.64835 348.23126 378.82022 348.41876Q378.9921 348.60626 378.9921 348.8875Q378.9921 349.15314 378.82022 349.34064Q378.64835 349.5125 378.3046 349.5125Q377.97647 349.5125 377.8046 349.34064Q377.64835 349.15314 377.64835 348.8875ZM389.69522 341.84064L386.94522 341.84064L386.94522 349.45L385.83585 349.45L385.83585 341.84064L383.08585 341.84064L383.08585 340.91876L389.69522 340.91876L389.69522 341.84064ZM393.25772 349.575Q391.96085 349.575 391.14835 348.73126Q390.35147 347.8719 390.35147 346.45L390.35147 346.2625Q390.35147 345.3094 390.71085 344.575Q391.07022 343.825 391.71085 343.41876Q392.3671 342.9969 393.1171 342.9969Q394.35147 342.9969 395.03897 343.8094Q395.72647 344.6219 395.72647 346.1375L395.72647 346.59064L391.4296 346.59064Q391.46085 347.52814 391.97647 348.10626Q392.50772 348.6844 393.32022 348.6844Q393.88272 348.6844 394.27335 348.45Q394.6796 348.21564 394.9921 347.825L395.64835 348.34064Q394.85147 349.575 393.25772 349.575ZM393.1171 343.8875Q392.46085 343.8875 392.00772 344.3719Q391.57022 344.84064 391.47647 345.7L394.64835 345.7L394.64835 345.6219Q394.60147 344.79376 394.19522 344.34064Q393.8046 343.8875 393.1171 343.8875ZM400.32022 347.7625Q400.32022 347.325 399.97647 347.09064Q399.64835 346.84064 398.82022 346.66876Q398.00772 346.4969 397.52335 346.2469Q397.03897 345.9969 396.8046 345.66876Q396.58585 345.325 396.58585 344.85626Q396.58585 344.075 397.2421 343.54376Q397.89835 342.9969 398.9296 342.9969Q400.00772 342.9969 400.66397 343.5594Q401.33585 344.10626 401.33585 344.96564L400.25772 344.96564Q400.25772 344.52814 399.8671 344.21564Q399.4921 343.8875 398.9296 343.8875Q398.33585 343.8875 397.9921 344.15314Q397.66397 344.40314 397.66397 344.8094Q397.66397 345.2 397.97647 345.40314Q398.28897 345.60626 399.10147 345.79376Q399.91397 345.96564 400.41397 346.21564Q400.91397 346.46564 401.14835 346.825Q401.39835 347.1844 401.39835 347.6844Q401.39835 348.54376 400.71085 349.0594Q400.03897 349.575 398.96085 349.575Q398.19522 349.575 397.60147 349.3094Q397.02335 349.02814 396.69522 348.54376Q396.3671 348.0594 396.3671 347.4969L397.44522 347.4969Q397.47647 348.04376 397.88272 348.3719Q398.28897 348.6844 398.96085 348.6844Q399.57022 348.6844 399.94522 348.4344Q400.32022 348.1844 400.32022 347.7625ZM404.10147 341.575L404.10147 343.10626L405.27335 343.10626L405.27335 343.95L404.10147 343.95L404.10147 347.8719Q404.10147 348.2625 404.25772 348.45Q404.41397 348.6375 404.78897 348.6375Q404.97647 348.6375 405.3046 348.575L405.3046 349.45Q404.88272 349.575 404.47647 349.575Q403.75772 349.575 403.38272 349.1375Q403.00772 348.6844 403.00772 347.8719L403.00772 343.95L401.85147 343.95L401.85147 343.10626L403.00772 343.10626L403.00772 341.575L404.10147 341.575Z" fill-rule="nonzero"/><path fill="#757575" d="M490.69504 346.59064L491.88254 346.59064L491.88254 347.46564L490.69504 347.46564L490.69504 349.45L489.6169 349.45L489.6169 347.46564L485.7263 347.46564L485.7263 346.825L489.5388 340.91876L490.69504 340.91876L490.69504 346.59064ZM486.96066 346.59064L489.6169 346.59064L489.6169 342.40314L489.4763 342.6375L486.96066 346.59064ZM493.25754 348.8875Q493.25754 348.60626 493.4138 348.41876Q493.58566 348.23126 493.9138 348.23126Q494.25754 348.23126 494.4294 348.41876Q494.6013 348.60626 494.6013 348.8875Q494.6013 349.15314 494.4294 349.34064Q494.25754 349.5125 493.9138 349.5125Q493.58566 349.5125 493.4138 349.34064Q493.25754 349.15314 493.25754 348.8875ZM505.3044 341.84064L502.5544 341.84064L502.5544 349.45L501.44504 349.45L501.44504 341.84064L498.69504 341.84064L498.69504 340.91876L505.3044 340.91876L505.3044 341.84064ZM508.8669 349.575Q507.57004 349.575 506.75754 348.73126Q505.96066 347.8719 505.96066 346.45L505.96066 346.2625Q505.96066 345.3094 506.32004 344.575Q506.6794 343.825 507.32004 343.41876Q507.9763 342.9969 508.7263 342.9969Q509.96066 342.9969 510.64816 343.8094Q511.33566 344.6219 511.33566 346.1375L511.33566 346.59064L507.0388 346.59064Q507.07004 347.52814 507.58566 348.10626Q508.1169 348.6844 508.9294 348.6844Q509.4919 348.6844 509.88254 348.45Q510.2888 348.21564 510.6013 347.825L511.25754 348.34064Q510.46066 349.575 508.8669 349.575ZM508.7263 343.8875Q508.07004 343.8875 507.6169 344.3719Q507.1794 344.84064 507.08566 345.7L510.25754 345.7L510.25754 345.6219Q510.21066 344.79376 509.8044 344.34064Q509.4138 343.8875 508.7263 343.8875ZM515.92944 347.7625Q515.92944 347.325 515.5857 347.09064Q515.25757 346.84064 514.42944 346.66876Q513.61694 346.4969 513.13257 346.2469Q512.6482 345.9969 512.4138 345.66876Q512.19507 345.325 512.19507 344.85626Q512.19507 344.075 512.8513 343.54376Q513.50757 342.9969 514.5388 342.9969Q515.61694 342.9969 516.2732 343.5594Q516.94507 344.10626 516.94507 344.96564L515.86694 344.96564Q515.86694 344.52814 515.4763 344.21564Q515.1013 343.8875 514.5388 343.8875Q513.94507 343.8875 513.6013 344.15314Q513.2732 344.40314 513.2732 344.8094Q513.2732 345.2 513.5857 345.40314Q513.8982 345.60626 514.7107 345.79376Q515.5232 345.96564 516.0232 346.21564Q516.5232 346.46564 516.75757 346.825Q517.00757 347.1844 517.00757 347.6844Q517.00757 348.54376 516.32007 349.0594Q515.6482 349.575 514.57007 349.575Q513.80444 349.575 513.2107 349.3094Q512.63257 349.02814 512.30444 348.54376Q511.9763 348.0594 511.9763 347.4969L513.05444 347.4969Q513.0857 348.04376 513.49194 348.3719Q513.8982 348.6844 514.57007 348.6844Q515.17944 348.6844 515.55444 348.4344Q515.92944 348.1844 515.92944 347.7625ZM519.7107 341.575L519.7107 343.10626L520.88257 343.10626L520.88257 343.95L519.7107 343.95L519.7107 347.8719Q519.7107 348.2625 519.86694 348.45Q520.0232 348.6375 520.3982 348.6375Q520.5857 348.6375 520.9138 348.575L520.9138 349.45Q520.49194 349.575 520.0857 349.575Q519.36694 349.575 518.99194 349.1375Q518.61694 348.6844 518.61694 347.8719L518.61694 343.95L517.4607 343.95L517.4607 343.10626L518.61694 343.10626L518.61694 341.575L519.7107 341.575Z" fill-rule="nonzero"/><path fill="#bdbdbd" d="M23.534374 63.05L22.26875 63.05L22.26875 54.628124L19.70625 55.55L19.70625 54.409374L23.33125 53.05L23.534374 53.05L23.534374 63.05ZM33.6125 58.8Q33.6125 61.01875 32.846874 62.1125Q32.096874 63.190624 30.4875 63.190624Q28.89375 63.190624 28.128124 62.14375Q27.3625 61.08125 27.33125 58.971874L27.33125 57.284374Q27.33125 55.096874 28.08125 54.034374Q28.846874 52.95625 30.471874 52.95625Q32.08125 52.95625 32.83125 53.9875Q33.596874 55.01875 33.6125 57.159374L33.6125 58.8ZM32.346874 57.08125Q32.346874 55.471874 31.89375 54.7375Q31.45625 54.003124 30.471874 54.003124Q29.503124 54.003124 29.05 54.7375Q28.6125 55.45625 28.596874 56.971874L28.596874 59.003124Q28.596874 60.6125 29.065624 61.39375Q29.534374 62.159374 30.4875 62.159374Q31.425 62.159374 31.878124 61.440624Q32.33125 60.70625 32.346874 59.14375L32.346874 57.08125ZM41.6125 58.8Q41.6125 61.01875 40.846874 62.1125Q40.096874 63.190624 38.4875 63.190624Q36.89375 63.190624 36.128124 62.14375Q35.3625 61.08125 35.33125 58.971874L35.33125 57.284374Q35.33125 55.096874 36.08125 54.034374Q36.846874 52.95625 38.471874 52.95625Q40.08125 52.95625 40.83125 53.9875Q41.596874 55.01875 41.6125 57.159374L41.6125 58.8ZM40.346874 57.08125Q40.346874 55.471874 39.89375 54.7375Q39.45625 54.003124 38.471874 54.003124Q37.503124 54.003124 37.05 54.7375Q36.6125 55.45625 36.596874 56.971874L36.596874 59.003124Q36.596874 60.6125 37.065624 61.39375Q37.534374 62.159374 38.4875 62.159374Q39.425 62.159374 39.878124 61.440624Q40.33125 60.70625 40.346874 59.14375L40.346874 57.08125ZM49.6125 58.8Q49.6125 61.01875 48.846874 62.1125Q48.096874 63.190624 46.4875 63.190624Q44.89375 63.190624 44.128124 62.14375Q43.3625 61.08125 43.33125 58.971874L43.33125 57.284374Q43.33125 55.096874 44.08125 54.034374Q44.846874 52.95625 46.471874 52.95625Q48.08125 52.95625 48.83125 53.9875Q49.596874 55.01875 49.6125 57.159374L49.6125 58.8ZM48.346874 57.08125Q48.346874 55.471874 47.89375 54.7375Q47.45625 54.003124 46.471874 54.003124Q45.503124 54.003124 45.05 54.7375Q44.6125 55.45625 44.596874 56.971874L44.596874 59.003124Q44.596874 60.6125 45.065624 61.39375Q45.534374 62.159374 46.4875 62.159374Q47.425 62.159374 47.878124 61.440624Q48.33125 60.70625 48.346874 59.14375L48.346874 57.08125ZM57.6125 58.8Q57.6125 61.01875 56.846874 62.1125Q56.096874 63.190624 54.4875 63.190624Q52.89375 63.190624 52.128124 62.14375Q51.3625 61.08125 51.33125 58.971874L51.33125 57.284374Q51.33125 55.096874 52.08125 54.034374Q52.846874 52.95625 54.471874 52.95625Q56.08125 52.95625 56.83125 53.9875Q57.596874 55.01875 57.6125 57.159374L57.6125 58.8ZM56.346874 57.08125Q56.346874 55.471874 55.89375 54.7375Q55.45625 54.003124 54.471874 54.003124Q53.503124 54.003124 53.05 54.7375Q52.6125 55.45625 52.596874 56.971874L52.596874 59.003124Q52.596874 60.6125 53.065624 61.39375Q53.534374 62.159374 54.4875 62.159374Q55.425 62.159374 55.878124 61.440624Q56.33125 60.70625 56.346874 59.14375L56.346874 57.08125ZM66.08125 56.784374Q65.8 56.7375 65.45625 56.7375Q64.22188 56.7375 63.76875 57.8L63.76875 63.05L62.503124 63.05L62.503124 55.659374L63.7375 55.659374L63.753124 56.503124Q64.37813 55.51875 65.51875 55.51875Q65.89375 55.51875 66.08125 55.6125L66.08125 56.784374ZM72.08125 62.315624Q71.33125 63.190624 69.90938 63.190624Q68.72188 63.190624 68.09688 62.503124Q67.4875 61.815624 67.4875 60.471874L67.4875 55.659374L68.7375 55.659374L68.7375 60.425Q68.7375 62.1125 70.1125 62.1125Q71.56563 62.1125 72.03438 61.034374L72.03438 55.659374L73.3 55.659374L73.3 63.05L72.09688 63.05L72.08125 62.315624ZM76.70625 55.659374L76.7375 56.58125Q77.59688 55.51875 78.95625 55.51875Q81.3 55.51875 81.33125 58.159374L81.33125 63.05L80.06563 63.05L80.06563 58.159374Q80.05 57.3625 79.69063 56.9875Q79.33125 56.596874 78.58125 56.596874Q77.95625 56.596874 77.4875 56.925Q77.03438 57.253124 76.76875 57.784374L76.76875 63.05L75.50313 63.05L75.50313 55.659374L76.70625 55.659374ZM92.75313 59.440624Q92.75313 61.128124 91.97188 62.159374Q91.20625 63.190624 89.89375 63.190624Q88.55 63.190624 87.76875 62.33125L87.76875 65.89375L86.50313 65.89375L86.50313 55.659374L87.65938 55.659374L87.72188 56.471874Q88.50313 55.51875 89.87813 55.51875Q91.20625 55.51875 91.97188 56.51875Q92.75313 57.51875 92.75313 59.315624L92.75313 59.440624ZM91.4875 59.284374Q91.4875 58.034374 90.95625 57.315624Q90.425 56.596874 89.4875 56.596874Q88.34688 56.596874 87.76875 57.6125L87.76875 61.14375Q88.34688 62.159374 89.50313 62.159374Q90.425 62.159374 90.95625 61.440624Q91.4875 60.70625 91.4875 59.284374ZM97.58125 63.190624Q96.06563 63.190624 95.12813 62.20625Q94.19063 61.20625 94.19063 59.55L94.19063 59.33125Q94.19063 58.221874 94.6125 57.3625Q95.03438 56.4875 95.78438 56.003124Q96.53438 55.51875 97.425 55.51875Q98.8625 55.51875 99.65938 56.471874Q100.45625 57.409374 100.45625 59.190624L100.45625 59.70625L95.45625 59.70625Q95.47188 60.8 96.08125 61.4875Q96.70625 62.159374 97.64375 62.159374Q98.31563 62.159374 98.76875 61.89375Q99.2375 61.6125 99.59688 61.159374L100.3625 61.753124Q99.44063 63.190624 97.58125 63.190624ZM97.425 56.55Q96.65938 56.55 96.12813 57.1125Q95.6125 57.675 95.4875 58.675L99.19063 58.675L99.19063 58.58125Q99.14375 57.6125 98.675 57.08125Q98.20625 56.55 97.425 56.55ZM105.08125 56.784374Q104.8 56.7375 104.45625 56.7375Q103.22188 56.7375 102.76875 57.8L102.76875 63.05L101.50313 63.05L101.50313 55.659374L102.7375 55.659374L102.75313 56.503124Q103.37813 55.51875 104.51875 55.51875Q104.89375 55.51875 105.08125 55.6125L105.08125 56.784374ZM111.22188 53.8625L111.22188 55.659374L112.59688 55.659374L112.59688 56.628124L111.22188 56.628124L111.22188 61.221874Q111.22188 61.659374 111.40938 61.89375Q111.59688 62.1125 112.03438 62.1125Q112.25313 62.1125 112.64375 62.01875L112.64375 63.05Q112.14375 63.190624 111.675 63.190624Q110.81563 63.190624 110.37813 62.675Q109.95625 62.159374 109.95625 61.221874L109.95625 56.628124L108.6125 56.628124L108.6125 55.659374L109.95625 55.659374L109.95625 53.8625L111.22188 53.8625ZM117.58125 63.190624Q116.06563 63.190624 115.12813 62.20625Q114.19063 61.20625 114.19063 59.55L114.19063 59.33125Q114.19063 58.221874 114.6125 57.3625Q115.03438 56.4875 115.78438 56.003124Q116.53438 55.51875 117.425 55.51875Q118.8625 55.51875 119.65938 56.471874Q120.45625 57.409374 120.45625 59.190624L120.45625 59.70625L115.45625 59.70625Q115.47188 60.8 116.08125 61.4875Q116.70625 62.159374 117.64375 62.159374Q118.31563 62.159374 118.76875 61.89375Q119.2375 61.6125 119.59688 61.159374L120.3625 61.753124Q119.44063 63.190624 117.58125 63.190624ZM117.425 56.55Q116.65938 56.55 116.12813 57.1125Q115.6125 57.675 115.4875 58.675L119.19063 58.675L119.19063 58.58125Q119.14375 57.6125 118.675 57.08125Q118.20625 56.55 117.425 56.55ZM125.81563 61.08125Q125.81563 60.58125 125.425 60.3Q125.03438 60.003124 124.08125 59.8Q123.12813 59.596874 122.55 59.315624Q121.9875 59.01875 121.72188 58.628124Q121.45625 58.2375 121.45625 57.690624Q121.45625 56.76875 122.22188 56.14375Q122.9875 55.51875 124.19063 55.51875Q125.44063 55.51875 126.22188 56.175Q127.00313 56.815624 127.00313 57.83125L125.7375 57.83125Q125.7375 57.3 125.3 56.925Q124.8625 56.55 124.19063 56.55Q123.50313 56.55 123.1125 56.8625Q122.72188 57.159374 122.72188 57.64375Q122.72188 58.096874 123.08125 58.33125Q123.44063 58.565624 124.37813 58.784374Q125.33125 58.9875 125.925 59.284374Q126.51875 59.58125 126.8 60.003124Q127.08125 60.409374 127.08125 61.003124Q127.08125 61.9875 126.28438 62.596874Q125.4875 63.190624 124.22188 63.190624Q123.34688 63.190624 122.65938 62.878124Q121.97188 62.55 121.58125 61.9875Q121.20625 61.425 121.20625 60.76875L122.47188 60.76875Q122.50313 61.409374 122.97188 61.784374Q123.45625 62.159374 124.22188 62.159374Q124.94063 62.159374 125.37813 61.8625Q125.81563 61.565624 125.81563 61.08125ZM130.22188 53.8625L130.22188 55.659374L131.59688 55.659374L131.59688 56.628124L130.22188 56.628124L130.22188 61.221874Q130.22188 61.659374 130.40938 61.89375Q130.59688 62.1125 131.03438 62.1125Q131.25313 62.1125 131.64375 62.01875L131.64375 63.05Q131.14375 63.190624 130.675 63.190624Q129.81563 63.190624 129.37813 62.675Q128.95625 62.159374 128.95625 61.221874L128.95625 56.628124L127.6125 56.628124L127.6125 55.659374L128.95625 55.659374L128.95625 53.8625L130.22188 53.8625Z" fill-rule="nonzero"/><path fill="#757575" d="M22.628124 23.33125L27.26875 34.925L31.925 23.33125L34.346874 23.33125L34.346874 37.55L32.471874 37.55L32.471874 32.01875L32.659374 26.034374L27.9875 37.55L26.55 37.55L21.89375 26.065624L22.08125 32.01875L22.08125 37.55L20.20625 37.55L20.20625 23.33125L22.628124 23.33125ZM43.440624 37.55Q43.284374 37.2375 43.190624 36.440624Q41.925 37.753124 40.175 37.753124Q38.6125 37.753124 37.6125 36.8625Q36.6125 35.971874 36.6125 34.6125Q36.6125 32.971874 37.8625 32.065624Q39.128124 31.14375 41.39375 31.14375L43.159374 31.14375L43.159374 30.315624Q43.159374 29.3625 42.58125 28.8Q42.01875 28.2375 40.925 28.2375Q39.95625 28.2375 39.3 28.7375Q38.64375 29.221874 38.64375 29.909374L36.83125 29.909374Q36.83125 29.128124 37.39375 28.39375Q37.95625 27.64375 38.909374 27.221874Q39.878124 26.784374 41.034374 26.784374Q42.8625 26.784374 43.89375 27.70625Q44.925 28.6125 44.971874 30.221874L44.971874 35.08125Q44.971874 36.534374 45.33125 37.39375L45.33125 37.55L43.440624 37.55ZM40.440624 36.175Q41.3 36.175 42.05 35.7375Q42.815624 35.3 43.159374 34.596874L43.159374 32.425L41.7375 32.425Q38.425 32.425 38.425 34.3625Q38.425 35.221874 38.9875 35.70625Q39.55 36.175 40.440624 36.175ZM54.065624 34.753124Q54.065624 34.01875 53.51875 33.6125Q52.971874 33.20625 51.596874 32.909374Q50.221874 32.6125 49.409374 32.20625Q48.6125 31.8 48.221874 31.2375Q47.846874 30.659374 47.846874 29.878124Q47.846874 28.58125 48.940624 27.690624Q50.034374 26.784374 51.753124 26.784374Q53.55 26.784374 54.659374 27.721874Q55.784374 28.64375 55.784374 30.08125L53.95625 30.08125Q53.95625 29.346874 53.33125 28.815624Q52.70625 28.26875 51.753124 28.26875Q50.753124 28.26875 50.190624 28.70625Q49.64375 29.128124 49.64375 29.83125Q49.64375 30.471874 50.159374 30.815624Q50.675 31.14375 52.034374 31.45625Q53.39375 31.753124 54.221874 32.175Q55.065624 32.58125 55.471874 33.175Q55.878124 33.76875 55.878124 34.6125Q55.878124 36.034374 54.7375 36.89375Q53.6125 37.753124 51.8 37.753124Q50.534374 37.753124 49.55 37.3Q48.58125 36.846874 48.01875 36.05Q47.471874 35.2375 47.471874 34.3L49.284374 34.3Q49.33125 35.20625 50.003124 35.7375Q50.690624 36.26875 51.8 36.26875Q52.83125 36.26875 53.440624 35.8625Q54.065624 35.440624 54.065624 34.753124ZM60.3625 24.425L60.3625 26.9875L62.346874 26.9875L62.346874 28.378124L60.3625 28.378124L60.3625 34.925Q60.3625 35.565624 60.628124 35.89375Q60.89375 36.20625 61.534374 36.20625Q61.846874 36.20625 62.39375 36.08125L62.39375 37.55Q61.675 37.753124 61.003124 37.753124Q59.8 37.753124 59.175 37.01875Q58.565624 36.284374 58.565624 34.925L58.565624 28.378124L56.64375 28.378124L56.64375 26.9875L58.565624 26.9875L58.565624 24.425L60.3625 24.425ZM69.3 37.753124Q67.15938 37.753124 65.8 36.346874Q64.45625 34.925 64.45625 32.565624L64.45625 32.221874Q64.45625 30.659374 65.05 29.425Q65.65938 28.190624 66.7375 27.4875Q67.81563 26.784374 69.08125 26.784374Q71.14375 26.784374 72.28438 28.14375Q73.425 29.503124 73.425 32.034374L73.425 32.784374L66.26875 32.784374Q66.3 34.346874 67.175 35.315624Q68.05 36.26875 69.39375 36.26875Q70.3625 36.26875 71.01875 35.878124Q71.69063 35.4875 72.19063 34.846874L73.28438 35.70625Q71.95625 37.753124 69.3 37.753124ZM69.08125 28.26875Q67.9875 28.26875 67.2375 29.065624Q66.50313 29.8625 66.33125 31.3L71.6125 31.3L71.6125 31.159374Q71.53438 29.784374 70.8625 29.034374Q70.20625 28.26875 69.08125 28.26875ZM81.01875 28.596874Q80.6125 28.534374 80.14375 28.534374Q78.3625 28.534374 77.72188 30.05L77.72188 37.55L75.925 37.55L75.925 26.9875L77.675 26.9875L77.70625 28.20625Q78.59688 26.784374 80.22188 26.784374Q80.75313 26.784374 81.01875 26.925L81.01875 28.596874ZM84.6125 26.9875L84.65938 28.159374Q85.83125 26.784374 87.8 26.784374Q90.01875 26.784374 90.81563 28.4875Q91.34688 27.721874 92.19063 27.253124Q93.03438 26.784374 94.19063 26.784374Q97.65938 26.784374 97.72188 30.471874L97.72188 37.55L95.90938 37.55L95.90938 30.58125Q95.90938 29.440624 95.39375 28.878124Q94.87813 28.315624 93.65938 28.315624Q92.65938 28.315624 91.9875 28.925Q91.33125 29.51875 91.22188 30.534374L91.22188 37.55L89.40938 37.55L89.40938 30.628124Q89.40938 28.315624 87.14375 28.315624Q85.3625 28.315624 84.72188 29.83125L84.72188 37.55L82.90938 37.55L82.90938 26.9875L84.6125 26.9875ZM102.87813 37.55L101.08125 37.55L101.08125 26.9875L102.87813 26.9875L102.87813 37.55ZM100.925 24.175Q100.925 23.7375 101.19063 23.440624Q101.47188 23.128124 101.9875 23.128124Q102.51875 23.128124 102.78438 23.440624Q103.06563 23.7375 103.06563 24.175Q103.06563 24.6125 102.78438 24.909374Q102.51875 25.20625 101.9875 25.20625Q101.47188 25.20625 101.19063 24.909374Q100.925 24.6125 100.925 24.175ZM107.62813 26.9875L107.69063 28.315624Q108.89375 26.784374 110.84688 26.784374Q114.20625 26.784374 114.22188 30.565624L114.22188 37.55L112.425 37.55L112.425 30.55Q112.40938 29.409374 111.89375 28.8625Q111.39375 28.315624 110.3 28.315624Q109.425 28.315624 108.75313 28.784374Q108.09688 29.253124 107.72188 30.01875L107.72188 37.55L105.925 37.55L105.925 26.9875L107.62813 26.9875ZM116.47188 32.175Q116.47188 29.753124 117.62813 28.26875Q118.78438 26.784374 120.64375 26.784374Q122.50313 26.784374 123.58125 28.05L123.58125 22.55L125.39375 22.55L125.39375 37.55L123.7375 37.55L123.64375 36.409374Q122.56563 37.753124 120.62813 37.753124Q118.8 37.753124 117.62813 36.253124Q116.47188 34.7375 116.47188 32.315624L116.47188 32.175ZM118.28438 32.378124Q118.28438 34.175 119.01875 35.190624Q119.76875 36.20625 121.08125 36.20625Q122.8 36.20625 123.58125 34.675L123.58125 29.815624Q122.78438 28.315624 121.09688 28.315624Q119.76875 28.315624 119.01875 29.346874Q118.28438 30.378124 118.28438 32.378124ZM141.05 33.83125L135.09688 33.83125L133.75313 37.55L131.83125 37.55L137.25313 23.33125L138.89375 23.33125L144.33125 37.55L142.40938 37.55L141.05 33.83125ZM135.65938 32.3L140.50313 32.3L138.08125 25.64375L135.65938 32.3ZM148.20625 37.55L146.33125 37.55L146.33125 23.33125L148.20625 23.33125L148.20625 37.55ZM166.70625 35.690624Q165.97188 36.721874 164.675 37.2375Q163.39375 37.753124 161.675 37.753124Q159.925 37.753124 158.58125 36.940624Q157.2375 36.1125 156.50313 34.6125Q155.76875 33.1125 155.7375 31.128124L155.7375 29.878124Q155.7375 26.675 157.2375 24.909374Q158.7375 23.128124 161.45625 23.128124Q163.675 23.128124 165.03438 24.26875Q166.39375 25.409374 166.70625 27.503124L164.83125 27.503124Q164.3 24.675 161.47188 24.675Q159.58125 24.675 158.6125 26.003124Q157.64375 27.33125 157.62813 29.83125L157.62813 31.003124Q157.62813 33.39375 158.72188 34.8Q159.81563 36.20625 161.675 36.20625Q162.7375 36.20625 163.51875 35.971874Q164.31563 35.7375 164.83125 35.190624L164.83125 31.9875L161.55 31.9875L161.55 30.471874L166.70625 30.471874L166.70625 35.690624ZM176.44063 36.503124Q175.39375 37.753124 173.34688 37.753124Q171.65938 37.753124 170.76875 36.76875Q169.89375 35.784374 169.87813 33.8625L169.87813 26.9875L171.69063 26.9875L171.69063 33.815624Q171.69063 36.20625 173.64375 36.20625Q175.70625 36.20625 176.39375 34.675L176.39375 26.9875L178.20625 26.9875L178.20625 37.55L176.4875 37.55L176.44063 36.503124ZM185.3 37.753124Q183.15938 37.753124 181.8 36.346874Q180.45625 34.925 180.45625 32.565624L180.45625 32.221874Q180.45625 30.659374 181.05 29.425Q181.65938 28.190624 182.7375 27.4875Q183.81563 26.784374 185.08125 26.784374Q187.14375 26.784374 188.28438 28.14375Q189.425 29.503124 189.425 32.034374L189.425 32.784374L182.26875 32.784374Q182.3 34.346874 183.175 35.315624Q184.05 36.26875 185.39375 36.26875Q186.3625 36.26875 187.01875 35.878124Q187.69063 35.4875 188.19063 34.846874L189.28438 35.70625Q187.95625 37.753124 185.3 37.753124ZM185.08125 28.26875Q183.9875 28.26875 183.2375 29.065624Q182.50313 29.8625 182.33125 31.3L187.6125 31.3L187.6125 31.159374Q187.53438 29.784374 186.8625 29.034374Q186.20625 28.26875 185.08125 28.26875ZM198.06563 34.753124Q198.06563 34.01875 197.51875 33.6125Q196.97188 33.20625 195.59688 32.909374Q194.22188 32.6125 193.40938 32.20625Q192.6125 31.8 192.22188 31.2375Q191.84688 30.659374 191.84688 29.878124Q191.84688 28.58125 192.94063 27.690624Q194.03438 26.784374 195.75313 26.784374Q197.55 26.784374 198.65938 27.721874Q199.78438 28.64375 199.78438 30.08125L197.95625 30.08125Q197.95625 29.346874 197.33125 28.815624Q196.70625 28.26875 195.75313 28.26875Q194.75313 28.26875 194.19063 28.70625Q193.64375 29.128124 193.64375 29.83125Q193.64375 30.471874 194.15938 30.815624Q194.675 31.14375 196.03438 31.45625Q197.39375 31.753124 198.22188 32.175Q199.06563 32.58125 199.47188 33.175Q199.87813 33.76875 199.87813 34.6125Q199.87813 36.034374 198.7375 36.89375Q197.6125 37.753124 195.8 37.753124Q194.53438 37.753124 193.55 37.3Q192.58125 36.846874 192.01875 36.05Q191.47188 35.2375 191.47188 34.3L193.28438 34.3Q193.33125 35.20625 194.00313 35.7375Q194.69063 36.26875 195.8 36.26875Q196.83125 36.26875 197.44063 35.8625Q198.06563 35.440624 198.06563 34.753124ZM208.06563 34.753124Q208.06563 34.01875 207.51875 33.6125Q206.97188 33.20625 205.59688 32.909374Q204.22188 32.6125 203.40938 32.20625Q202.6125 31.8 202.22188 31.2375Q201.84688 30.659374 201.84688 29.878124Q201.84688 28.58125 202.94063 27.690624Q204.03438 26.784374 205.75313 26.784374Q207.55 26.784374 208.65938 27.721874Q209.78438 28.64375 209.78438 30.08125L207.95625 30.08125Q207.95625 29.346874 207.33125 28.815624Q206.70625 28.26875 205.75313 28.26875Q204.75313 28.26875 204.19063 28.70625Q203.64375 29.128124 203.64375 29.83125Q203.64375 30.471874 204.15938 30.815624Q204.675 31.14375 206.03438 31.45625Q207.39375 31.753124 208.22188 32.175Q209.06563 32.58125 209.47188 33.175Q209.87813 33.76875 209.87813 34.6125Q209.87813 36.034374 208.7375 36.89375Q207.6125 37.753124 205.8 37.753124Q204.53438 37.753124 203.55 37.3Q202.58125 36.846874 202.01875 36.05Q201.47188 35.2375 201.47188 34.3L203.28438 34.3Q203.33125 35.20625 204.00313 35.7375Q204.69063 36.26875 205.8 36.26875Q206.83125 36.26875 207.44063 35.8625Q208.06563 35.440624 208.06563 34.753124ZM216.3 37.753124Q214.15938 37.753124 212.8 36.346874Q211.45625 34.925 211.45625 32.565624L211.45625 32.221874Q211.45625 30.659374 212.05 29.425Q212.65938 28.190624 213.7375 27.4875Q214.81563 26.784374 216.08125 26.784374Q218.14375 26.784374 219.28438 28.14375Q220.425 29.503124 220.425 32.034374L220.425 32.784374L213.26875 32.784374Q213.3 34.346874 214.175 35.315624Q215.05 36.26875 216.39375 36.26875Q217.3625 36.26875 218.01875 35.878124Q218.69063 35.4875 219.19063 34.846874L220.28438 35.70625Q218.95625 37.753124 216.3 37.753124ZM216.08125 28.26875Q214.9875 28.26875 214.2375 29.065624Q213.50313 29.8625 213.33125 31.3L218.6125 31.3L218.6125 31.159374Q218.53438 29.784374 217.8625 29.034374Q217.20625 28.26875 216.08125 28.26875ZM229.06563 34.753124Q229.06563 34.01875 228.51875 33.6125Q227.97188 33.20625 226.59688 32.909374Q225.22188 32.6125 224.40938 32.20625Q223.6125 31.8 223.22188 31.2375Q222.84688 30.659374 222.84688 29.878124Q222.84688 28.58125 223.94063 27.690624Q225.03438 26.784374 226.75313 26.784374Q228.55 26.784374 229.65938 27.721874Q230.78438 28.64375 230.78438 30.08125L228.95625 30.08125Q228.95625 29.346874 228.33125 28.815624Q227.70625 28.26875 226.75313 28.26875Q225.75313 28.26875 225.19063 28.70625Q224.64375 29.128124 224.64375 29.83125Q224.64375 30.471874 225.15938 30.815624Q225.675 31.14375 227.03438 31.45625Q228.39375 31.753124 229.22188 32.175Q230.06563 32.58125 230.47188 33.175Q230.87813 33.76875 230.87813 34.6125Q230.87813 36.034374 229.7375 36.89375Q228.6125 37.753124 226.8 37.753124Q225.53438 37.753124 224.55 37.3Q223.58125 36.846874 223.01875 36.05Q222.47188 35.2375 222.47188 34.3L224.28438 34.3Q224.33125 35.20625 225.00313 35.7375Q225.69063 36.26875 226.8 36.26875Q227.83125 36.26875 228.44063 35.8625Q229.06563 35.440624 229.06563 34.753124ZM246.05 33.83125L240.09688 33.83125L238.75313 37.55L236.83125 37.55L242.25313 23.33125L243.89375 23.33125L249.33125 37.55L247.40938 37.55L246.05 33.83125ZM240.65938 32.3L245.50313 32.3L243.08125 25.64375L240.65938 32.3ZM254.40938 35.096874L257.01874 26.9875L258.8625 26.9875L255.08125 37.55L253.70625 37.55L249.87813 26.9875L251.72188 26.9875L254.40938 35.096874ZM265.3 37.753124Q263.15936 37.753124 261.8 36.346874Q260.45624 34.925 260.45624 32.565624L260.45624 32.221874Q260.45624 30.659374 261.05 29.425Q261.65936 28.190624 262.7375 27.4875Q263.8156 26.784374 265.08124 26.784374Q267.14374 26.784374 268.28436 28.14375Q269.425 29.503124 269.425 32.034374L269.425 32.784374L262.26874 32.784374Q262.3 34.346874 263.175 35.315624Q264.05 36.26875 265.39374 36.26875Q266.3625 36.26875 267.01874 35.878124Q267.6906 35.4875 268.1906 34.846874L269.28436 35.70625Q267.95624 37.753124 265.3 37.753124ZM265.08124 28.26875Q263.9875 28.26875 263.2375 29.065624Q262.5031 29.8625 262.33124 31.3L267.6125 31.3L267.6125 31.159374Q267.53436 29.784374 266.8625 29.034374Q266.20624 28.26875 265.08124 28.26875ZM277.01874 28.596874Q276.6125 28.534374 276.14374 28.534374Q274.3625 28.534374 273.72186 30.05L273.72186 37.55L271.925 37.55L271.925 26.9875L273.675 26.9875L273.70624 28.20625Q274.59686 26.784374 276.22186 26.784374Q276.7531 26.784374 277.01874 26.925L277.01874 28.596874ZM285.4406 37.55Q285.28436 37.2375 285.1906 36.440624Q283.925 37.753124 282.175 37.753124Q280.6125 37.753124 279.6125 36.8625Q278.6125 35.971874 278.6125 34.6125Q278.6125 32.971874 279.8625 32.065624Q281.1281 31.14375 283.39374 31.14375L285.15936 31.14375L285.15936 30.315624Q285.15936 29.3625 284.58124 28.8Q284.01874 28.2375 282.925 28.2375Q281.95624 28.2375 281.3 28.7375Q280.64374 29.221874 280.64374 29.909374L278.83124 29.909374Q278.83124 29.128124 279.39374 28.39375Q279.95624 27.64375 280.90936 27.221874Q281.8781 26.784374 283.03436 26.784374Q284.8625 26.784374 285.89374 27.70625Q286.925 28.6125 286.97186 30.221874L286.97186 35.08125Q286.97186 36.534374 287.33124 37.39375L287.33124 37.55L285.4406 37.55ZM282.4406 36.175Q283.3 36.175 284.05 35.7375Q284.8156 35.3 285.15936 34.596874L285.15936 32.425L283.7375 32.425Q280.425 32.425 280.425 34.3625Q280.425 35.221874 280.9875 35.70625Q281.55 36.175 282.4406 36.175ZM289.4875 32.175Q289.4875 29.70625 290.6281 28.253124Q291.76874 26.784374 293.65936 26.784374Q295.59686 26.784374 296.675 28.159374L296.76874 26.9875L298.40936 26.9875L298.40936 37.3Q298.40936 39.346874 297.1906 40.51875Q295.9875 41.70625 293.925 41.70625Q292.78436 41.70625 291.6906 41.221874Q290.59686 40.7375 290.01874 39.878124L290.95624 38.8Q292.1281 40.2375 293.8 40.2375Q295.1281 40.2375 295.8625 39.4875Q296.59686 38.753124 296.59686 37.409374L296.59686 36.4875Q295.51874 37.753124 293.64374 37.753124Q291.78436 37.753124 290.6281 36.253124Q289.4875 34.753124 289.4875 32.175ZM291.3 32.378124Q291.3 34.175 292.03436 35.190624Q292.76874 36.20625 294.08124 36.20625Q295.8 36.20625 296.59686 34.659374L296.59686 29.83125Q295.76874 28.315624 294.1125 28.315624Q292.78436 28.315624 292.03436 29.346874Q291.3 30.378124 291.3 32.378124ZM305.3 37.753124Q303.15936 37.753124 301.8 36.346874Q300.45624 34.925 300.45624 32.565624L300.45624 32.221874Q300.45624 30.659374 301.05 29.425Q301.65936 28.190624 302.7375 27.4875Q303.8156 26.784374 305.08124 26.784374Q307.14374 26.784374 308.28436 28.14375Q309.425 29.503124 309.425 32.034374L309.425 32.784374L302.26874 32.784374Q302.3 34.346874 303.175 35.315624Q304.05 36.26875 305.39374 36.26875Q306.3625 36.26875 307.01874 35.878124Q307.6906 35.4875 308.1906 34.846874L309.28436 35.70625Q307.95624 37.753124 305.3 37.753124ZM305.08124 28.26875Q303.9875 28.26875 303.2375 29.065624Q302.5031 29.8625 302.33124 31.3L307.6125 31.3L307.6125 31.159374Q307.53436 29.784374 306.8625 29.034374Q306.20624 28.26875 305.08124 28.26875Z" fill-rule="nonzero"/></svg>